<?xml version="1.0" standalone="no"?>
<!DOCTYPE svg PUBLIC "-//W3C//DTD SVG 20010904//EN"
 "http://www.w3.org/TR/2001/REC-SVG-20010904/DTD/svg10.dtd">
<svg version="1.0" xmlns="http://www.w3.org/2000/svg"
 width="600.000000pt" height="600.000000pt" viewBox="0 0 600.000000 600.000000"
 preserveAspectRatio="xMidYMid meet">
<metadata>
Created by potrace 1.16, written by Peter Selinger 2001-2019
</metadata>
<g transform="translate(0.000000,600.000000) scale(0.100000,-0.100000)"
fill="#000000" stroke="none">
<path d="M3545 5174 c-122 -26 -334 -93 -437 -138 -46 -20 -66 -24 -107 -19
-33 4 -48 10 -44 17 4 6 -3 3 -14 -6 -11 -10 -27 -18 -35 -18 -32 0 -176 -54
-269 -101 -53 -27 -100 -49 -105 -49 -5 0 -61 -53 -124 -118 -118 -120 -137
-147 -232 -342 l-42 -85 -1 -125 c0 -69 5 -150 12 -180 7 -30 17 -82 23 -115
14 -82 49 -146 130 -240 136 -157 186 -231 219 -327 l19 -55 -37 -13 c-88 -31
-141 -85 -141 -145 0 -71 83 -138 220 -179 88 -26 288 -56 378 -56 l83 0 -16
-29 c-8 -16 -22 -36 -30 -45 -24 -24 -86 -20 -146 10 -102 52 -203 30 -240
-49 -10 -24 -19 -34 -19 -23 0 32 -40 86 -74 100 -18 8 -56 17 -84 21 -47 6
-51 9 -58 38 -3 17 -15 59 -26 92 -54 165 -174 212 -284 110 l-29 -27 -6 41
c-3 22 -8 44 -12 47 -4 4 7 23 24 42 28 31 31 41 27 82 -5 51 -57 144 -109
198 -35 36 -110 57 -175 49 -25 -2 -64 0 -87 5 -23 6 -69 11 -102 12 -58 2
-77 -3 -182 -50 -17 -8 -35 -14 -41 -14 -5 0 -12 -7 -16 -15 -3 -8 -11 -15
-17 -15 -14 0 -159 -128 -159 -141 0 -5 -8 -18 -18 -29 -9 -11 -15 -22 -13
-23 2 -1 -1 -12 -8 -24 -6 -12 -14 -48 -16 -80 -3 -32 -8 -70 -11 -85 -3 -15
-2 -33 2 -40 10 -16 5 -77 -8 -101 -5 -10 -9 -47 -9 -82 0 -51 5 -73 26 -109
39 -66 88 -106 131 -106 19 0 46 -8 61 -17 14 -9 33 -18 42 -19 9 -1 40 -5 70
-8 36 -4 63 -14 83 -31 l30 -26 0 -112 c-1 -90 3 -124 21 -177 29 -85 44 -93
159 -85 l88 6 40 -63 c22 -35 56 -74 76 -87 32 -22 40 -24 77 -14 l41 11 75
-64 c67 -60 77 -65 113 -62 29 2 42 -2 49 -14 17 -30 0 -48 -43 -48 -33 0 -47
-6 -74 -35 -28 -30 -39 -35 -77 -35 -44 0 -76 -22 -90 -62 -3 -9 -28 -28 -55
-42 -67 -34 -163 -99 -187 -127 -31 -36 -65 -87 -65 -97 0 -5 -12 -19 -26 -33
-36 -33 -84 -104 -84 -124 0 -9 15 -49 33 -89 l34 -72 84 -32 c138 -52 201
-63 379 -69 150 -5 173 -3 250 17 47 13 117 37 156 55 78 36 139 51 229 59
238 22 390 39 452 51 40 8 76 15 81 15 4 0 8 -24 9 -54 2 -69 42 -154 96 -203
128 -115 413 -177 708 -155 248 19 464 91 660 222 172 113 154 81 153 280 -1
202 5 191 -137 265 -49 25 -118 68 -154 95 -36 27 -82 57 -102 67 l-36 17 67
67 c79 77 84 97 42 185 -30 63 -52 78 -108 72 l-41 -5 -54 83 c-30 46 -56 95
-57 110 -2 14 -8 32 -15 40 -9 11 -7 19 14 38 35 33 54 83 62 163 8 79 -12
151 -63 225 -46 67 -69 119 -77 170 -9 59 0 85 35 103 42 22 70 18 119 -15 56
-38 84 -38 151 3 44 26 67 51 122 132 82 121 158 292 158 352 0 24 -11 71 -24
106 -28 75 -34 122 -46 377 -10 223 -26 303 -76 385 -21 36 -34 70 -34 92 0
20 -13 60 -30 92 l-31 57 21 48 c30 70 26 130 -11 195 -41 72 -114 143 -180
176 -30 15 -56 31 -59 35 -7 10 -146 70 -163 70 -8 0 -63 16 -122 36 -102 34
-153 42 -355 58 -36 3 -97 -4 -175 -20z m262 -1516 c-4 -51 -2 -129 3 -173 16
-129 27 -199 35 -224 6 -20 4 -22 -15 -16 -54 17 -164 -38 -170 -85 -6 -40 1
-44 26 -17 51 55 132 64 183 21 36 -30 38 -44 11 -69 -17 -16 -25 -16 -64 -5
-66 18 -123 -5 -168 -69 -11 -16 -45 -24 -182 -46 -93 -14 -191 -25 -218 -23
l-49 3 46 62 c48 67 58 103 26 103 -12 0 -42 -28 -77 -74 l-59 -74 -52 57
c-40 43 -54 53 -63 44 -17 -16 -6 -54 25 -91 14 -17 25 -31 25 -33 0 -7 -142
1 -243 12 l-98 11 -19 38 c-29 57 -73 84 -136 84 -28 0 -59 -6 -67 -13 -37
-30 -88 19 -60 59 46 65 188 65 224 -1 8 -15 14 -18 22 -10 13 13 -15 81 -33
81 -6 0 -8 5 -5 10 3 6 17 10 30 10 35 0 55 10 55 29 0 9 -14 57 -31 106 -33
99 -71 236 -67 240 2 1 34 0 73 -4 l70 -6 12 -70 c6 -38 12 -86 13 -105 1 -44
54 -197 77 -222 25 -28 80 -21 106 14 16 22 22 48 25 118 l4 90 34 -25 c18
-14 37 -25 42 -25 5 0 23 16 39 35 29 34 43 36 43 8 0 -28 63 -162 90 -192 38
-41 82 -43 107 -4 16 23 18 52 18 210 l0 183 61 0 c127 0 256 45 318 109 17
17 32 31 34 31 3 0 2 -42 -1 -92z m-1592 -572 c31 -13 36 -22 63 -108 16 -51
33 -107 36 -124 11 -48 34 -63 114 -70 65 -6 72 -9 80 -33 11 -32 -8 -93 -42
-136 l-24 -30 -38 22 c-22 12 -60 27 -86 33 -46 12 -46 12 -36 41 16 46 3 84
-58 170 -66 94 -80 104 -131 90 -30 -9 -40 -7 -54 5 -17 15 -17 18 8 55 24 37
50 58 103 86 30 16 24 16 65 -1z m-86 -206 c4 0 29 -34 55 -75 43 -68 47 -78
41 -117 -7 -39 -14 -48 -82 -98 -100 -74 -189 -155 -177 -162 5 -4 52 25 104
64 52 39 114 79 137 89 41 19 42 19 95 -1 70 -27 74 -30 81 -67 10 -51 -7 -88
-92 -193 -45 -56 -81 -105 -81 -110 0 -27 35 -1 109 79 45 49 97 99 116 111
l34 21 41 -21 c52 -26 53 -57 2 -52 -18 2 -47 -2 -66 -8 -30 -10 -36 -20 -73
-113 -23 -56 -44 -118 -48 -137 -10 -47 -80 -126 -108 -122 -26 5 -118 74
-135 102 -11 18 -21 21 -69 18 l-57 -3 -36 49 c-19 27 -48 65 -65 83 -30 34
-31 34 -85 26 -30 -5 -73 -6 -95 -3 -39 5 -40 6 -52 60 -17 71 -18 202 -2 232
42 81 117 164 194 213 127 82 266 148 293 139 8 -2 17 -4 21 -4z m617 -275 c4
-10 -10 -29 -39 -55 -25 -22 -51 -56 -57 -75 -16 -50 -36 -57 -76 -30 -19 13
-57 26 -84 30 l-51 7 48 46 c27 26 72 56 103 69 66 26 148 30 156 8z"/>
</g>
</svg>
